<?xml version="1.0" standalone="no"?>
<!DOCTYPE svg PUBLIC "-//W3C//DTD SVG 20010904//EN"
 "http://www.w3.org/TR/2001/REC-SVG-20010904/DTD/svg10.dtd">
<svg version="1.0" xmlns="http://www.w3.org/2000/svg"
 width="260.000000pt" height="260.000000pt" viewBox="0 0 260.000000 260.000000"
 preserveAspectRatio="xMidYMid meet">
<metadata>
Created by potrace 1.14, written by Peter Selinger 2001-2017
</metadata>
<g transform="translate(0.000000,260.000000) scale(0.100000,-0.100000)"
fill="#000000" stroke="none">
<path d="M0 1300 l0 -1300 1300 0 1300 0 0 1300 0 1300 -1300 0 -1300 0 0
-1300z m1008 867 c34 -12 82 -38 106 -57 67 -53 126 -153 126 -212 0 -30 -2
-28 -67 41 -43 47 -87 83 -127 104 -58 31 -66 32 -176 32 -109 -1 -118 -2
-183 -34 -38 -18 -88 -53 -113 -78 -24 -26 -47 -43 -50 -40 -9 9 46 105 90
154 36 41 101 79 176 103 50 16 153 10 218 -13z m877 -26 c153 -72 212 -154
222 -311 7 -111 -17 -207 -90 -361 -30 -63 -78 -166 -107 -229 -136 -299 -171
-349 -225 -320 -19 10 -25 22 -27 59 l-3 46 -13 -30 c-46 -111 -74 -145 -117
-145 -17 0 -36 5 -43 12 -18 18 -14 73 8 113 21 37 25 55 13 55 -5 0 -24 -34
-42 -75 -38 -82 -62 -110 -102 -120 -21 -5 -31 -1 -48 21 -24 31 -21 76 10
130 30 53 36 67 64 129 44 97 61 136 96 208 18 37 29 70 25 74 -4 4 -9 -3 -13
-15 -3 -12 -9 -22 -14 -22 -5 0 -9 -6 -9 -12 0 -7 -15 -44 -34 -83 -19 -38
-54 -113 -79 -165 -50 -106 -77 -131 -125 -114 -21 7 -28 17 -30 44 -3 33 18
83 199 455 21 44 46 97 54 119 34 87 4 105 -40 24 -15 -29 -48 -81 -72 -115
-39 -56 -48 -63 -77 -63 -34 0 -86 32 -86 53 0 16 236 494 261 528 30 42 152
120 211 135 74 19 160 10 233 -25z m-850 -161 c86 -44 137 -89 176 -156 40
-71 27 -93 -22 -36 -45 52 -132 107 -204 128 -45 12 -81 15 -145 11 -109 -7
-157 -25 -259 -95 -35 -25 -62 -41 -59 -36 2 5 13 30 25 55 28 60 98 117 182
147 55 19 80 22 154 19 75 -4 98 -9 152 -37z m-515 -502 c0 -20 113 -149 219
-250 113 -107 331 -288 471 -391 l85 -62 3 -77 c2 -43 0 -78 -4 -78 -4 0 -26
15 -49 34 -23 19 -64 52 -91 72 -27 20 -67 53 -89 73 -23 20 -74 65 -115 101
-197 173 -358 364 -429 509 -22 46 -29 97 -11 86 6 -3 10 -11 10 -17z m42
-256 c21 -31 69 -92 108 -134 85 -92 324 -310 400 -363 30 -22 70 -52 89 -68
19 -16 59 -45 88 -64 53 -34 53 -34 53 -86 0 -29 -3 -62 -6 -74 l-6 -23 -32
22 c-82 58 -285 230 -414 352 -66 62 -197 214 -241 279 -52 77 -106 218 -83
217 4 -1 24 -27 44 -58z"/>
<path d="M1690 1935 l0 -75 -75 0 -75 0 0 -80 0 -80 75 0 75 0 0 -80 0 -80 80
0 80 0 0 80 0 80 80 0 80 0 0 80 0 80 -80 0 -80 0 0 75 0 75 -80 0 -80 0 0
-75z"/>
<path d="M1542 1488 c-14 -14 -16 -42 -3 -34 7 5 23 46 17 46 -1 0 -7 -5 -14
-12z"/>
<path d="M1510 1425 c0 -8 5 -15 10 -15 6 0 10 7 10 15 0 8 -4 15 -10 15 -5 0
-10 -7 -10 -15z"/>
<path d="M1645 1333 c-26 -54 -67 -140 -92 -191 -25 -51 -43 -95 -40 -98 3 -4
31 47 62 112 31 66 73 152 92 192 20 40 33 75 30 78 -3 3 -26 -39 -52 -93z"/>
<path d="M1802 1344 c-12 -24 -22 -51 -22 -59 0 -8 -3 -15 -8 -15 -4 0 -13
-15 -21 -32 -7 -18 -31 -70 -52 -115 -42 -88 -44 -93 -29 -93 6 0 10 9 10 20
0 11 5 20 10 20 6 0 10 9 10 20 0 11 5 20 10 20 6 0 10 5 10 12 0 11 45 110
101 220 10 21 15 39 10 42 -4 3 -17 -15 -29 -40z"/>
</g>
</svg>
